<?xml version="1.0" encoding="iso-8859-1"?>
<!-- Generator: Adobe Illustrator 19.0.0, SVG Export Plug-In . SVG Version: 6.00 Build 0)  -->
<svg xmlns="http://www.w3.org/2000/svg" xmlns:xlink="http://www.w3.org/1999/xlink" version="1.1" id="Layer_1" x="0px" y="0px" viewBox="0 0 512 512" style="enable-background:new 0 0 512 512;" xml:space="preserve" width="512" height="512">
<g>
	<g>
		<g>
			<path style="fill:#FADC60;" d="M287.174,504.5h30.994c7.442,0,13.476-6.033,13.476-13.476c0-7.442-6.033-13.476-13.476-13.476     h-17.518v-38.682c0-7.442-6.033-13.476-13.476-13.476c-7.442,0-13.476,6.033-13.476,13.476v52.158     C273.698,498.467,279.731,504.5,287.174,504.5z"/>
		</g>
		<g>
			<path style="fill:#FADC60;" d="M224.827,504.5h-30.994c-7.442,0-13.476-6.033-13.476-13.476c0-7.442,6.033-13.476,13.476-13.476     h17.518v-38.682c0-7.442,6.033-13.476,13.476-13.476s13.476,6.033,13.476,13.476v52.158     C238.302,498.467,232.269,504.5,224.827,504.5z"/>
		</g>
		<path style="fill:#7CB777;" d="M368.216,328.982c60.794-50.574,86.595,93.162-47.707,116.892L368.216,328.982z"/>
		<path style="fill:#7CB777;" d="M143.784,328.982c-60.794-50.574-86.595,93.162,47.707,116.892L143.784,328.982z"/>
		<path style="fill:#F2C42C;" d="M287.174,425.391c-7.442,0-13.476,6.033-13.476,13.476v43.309    c9.307-1.097,18.322-3.051,26.951-5.765v-37.544C300.649,431.424,294.616,425.391,287.174,425.391z"/>
		<path style="fill:#F2C42C;" d="M224.827,425.391c-7.442,0-13.476,6.033-13.476,13.476v37.544    c8.629,2.714,17.644,4.668,26.951,5.765v-43.309C238.302,431.424,232.269,425.391,224.827,425.391z"/>
		<ellipse style="fill:#34925D;" cx="256" cy="358.599" rx="116.978" ry="104.615"/>
		<circle style="fill:#7CB777;" cx="256" cy="206.738" r="151.86"/>
		<path style="fill:#FADC60;" d="M85.694,122.679C73.121,99.205,70.968,84.922,96.939,84.922C164.246,84.922,154.357,7.5,256,7.5    s91.754,77.422,159.061,77.422c25.971,0,23.818,14.283,11.246,37.757H85.694z"/>
		<path style="fill:#3A484A;" d="M426.307,122.679c-6.262,11.698-15.099,25.686-24.339,41.316H110.033    c-9.24-15.63-18.078-29.618-24.339-41.316c24.192-2.969,36.027-6.163,36.027-6.163c29.589-7.078,47.479-26.099,61.3-40.795    C201.492,56.09,214.832,41.905,256,41.905s54.508,14.185,72.979,33.816c13.821,14.696,31.712,33.717,61.301,40.795    C390.279,116.516,402.115,119.711,426.307,122.679z"/>
		<path style="fill:#3A484A;" d="M183.749,279.176c31.806,0,41.292-34.784,44.109-56.916c1.563-12.283-5.864-23.822-17.16-26.57    c-6.633-1.613-15.429-2.803-26.949-2.803c-11.52,0-20.316,1.19-26.949,2.803c-11.296,2.748-18.724,14.287-17.16,26.57    C142.457,244.391,151.943,279.176,183.749,279.176z"/>
		<path style="fill:#F2C42C;" d="M306.231,262.947c-2.995,27.086-24.345,48.086-50.231,48.086s-47.236-21-50.231-48.086H306.231z"/>
		<path style="fill:#FADC60;" d="M306.589,256.408c0,2.217-0.119,4.394-0.358,6.539c-13.348,9.4-30.94,15.112-50.231,15.112    s-36.883-5.713-50.231-15.112c-0.238-2.145-0.358-4.322-0.358-6.539c0-30.169,22.653-54.625,50.589-54.625    S306.589,226.239,306.589,256.408z"/>
		<path style="fill:#34925D;" d="M105.189,188.888h301.622c-0.999-8.534-2.705-16.852-5.059-24.893H110.248    C107.894,172.037,106.189,180.354,105.189,188.888z"/>
	</g>
	<g>
		<path d="M339.523,216.352c-4.142,0-7.5,3.358-7.5,7.5v18.431c0,4.142,3.358,7.5,7.5,7.5s7.5-3.358,7.5-7.5v-18.431    C347.023,219.71,343.665,216.352,339.523,216.352z"/>
		<path d="M432.92,126.216c7.479-13.964,13.546-28.311,7.358-38.645c-6.077-10.149-20.483-10.149-25.217-10.149    c-26.956,0-39.577-13.419-55.557-30.408C338.776,24.977,315.282,0,256,0c-46.368,0-70.229,15.737-85.835,29.448    c-3.112,2.734-3.418,7.473-0.685,10.584c2.734,3.112,7.473,3.419,10.584,0.685C193.694,28.744,214.642,15,256,15    c52.799,0,73.021,21.5,92.578,42.292c16.245,17.271,33.043,35.13,66.483,35.13c10.125,0,12.062,2.378,12.348,2.855    c0.729,1.218,1.503,5.456-5.355,19.295c-7.836-1.053-15.657-2.263-23.403-3.855c-19.418-3.966-35.967-12.75-50.47-26.21    c-20.81-19.315-37.801-42.46-67.479-48.034c-8.133-1.528-16.435-2.068-24.701-2.068c-7.235,0-14.503,0.418-21.656,1.542    c-28.379,4.458-41.251,18.125-56.786,34.635c-13.443,14.293-30.172,32.083-57.582,38.639c-5.593,1.339-11.191,2.584-16.879,3.459    c-4.39,0.551-8.761,1.307-13.15,1.892c-6.859-13.839-6.085-18.077-5.355-19.295c0.286-0.477,2.223-2.855,12.348-2.855    c30.588,0,47.208-14.824,62.901-31.338c2.854-3.002,2.732-7.75-0.27-10.603c-3.002-2.854-7.75-2.733-10.603,0.27    c-14.361,15.112-27.31,26.671-52.028,26.671c-4.734,0-19.14,0-25.217,10.149c-6.188,10.334-0.121,24.681,7.359,38.648    c4.286,8.007,20.499,34.872,23.026,39.12c-3.614,13.464-5.468,27.369-5.468,41.4c0,40.647,15.944,80.355,43.953,109.785    c-0.108,0.239-0.223,0.477-0.329,0.717c-7.062-4.287-14.009-6.464-20.74-6.464c-17.497,0-30.57,15.03-32.531,37.4    c-1.818,20.741,5.856,43.163,21.055,61.514c12.74,15.383,37.103,35.308,80.914,43.338c4.751,2.746,9.727,5.203,14.889,7.357v9.662    h-10.019c-11.566,0-20.976,9.41-20.976,20.976c0,11.566,9.41,20.976,20.976,20.976h30.994c11.566,0,20.976-9.41,20.976-20.976    v-20.689c3.364,0.247,6.764,0.378,10.198,0.378c3.434,0,6.834-0.132,10.198-0.378v20.689c0,11.566,9.41,20.976,20.976,20.976    h30.994c11.566,0,20.976-9.41,20.976-20.976c0-11.566-9.41-20.976-20.976-20.976h-10.018v-9.663    c5.162-2.154,10.138-4.611,14.889-7.357c43.873-8.045,76.819-29.84,92.839-61.477c1.872-3.695,0.393-8.208-3.303-10.079    c-3.695-1.872-8.208-0.393-10.079,3.303c-9.598,18.954-26.543,33.886-49.07,43.657c12.153-13.735,20.566-29.889,24.506-47.216    c0.009-0.038,0.017-0.075,0.026-0.113c2.426-10.676,3.081-21.714,2.017-32.608c-0.005-0.05-0.01-0.1-0.016-0.15    c-0.561-5.614-1.576-11.146-3.059-16.577c8.453-5.911,16.119-7.509,21.893-4.476c8.065,4.237,12.573,17.118,11.217,32.051    c-0.375,4.125,2.666,7.773,6.791,8.147c4.118,0.375,7.773-2.666,8.147-6.791c1.928-21.227-5.601-39.553-19.179-46.687    c-6.139-3.226-18.059-6.471-34.034,3.225c-0.106-0.24-0.221-0.477-0.329-0.716c27.222-28.602,43.953-67.276,43.953-109.785    c0-14.032-1.854-27.938-5.468-41.4C412.42,161.089,428.633,134.225,432.92,126.216z M230.802,491.024    c0,3.295-2.681,5.976-5.976,5.976h-30.994c-3.295,0-5.976-2.681-5.976-5.976c0-3.295,2.681-5.976,5.976-5.976h17.519    c4.142,0,7.5-3.358,7.5-7.5V465.63c3.931,1.106,7.921,2.035,11.951,2.783V491.024z M318.167,485.048    c3.295,0,5.976,2.681,5.976,5.976c0,3.295-2.681,5.976-5.976,5.976h-30.994c-3.295,0-5.976-2.681-5.976-5.976v-22.611    c4.031-0.748,8.021-1.677,11.952-2.783v11.918c0,4.142,3.358,7.5,7.5,7.5H318.167z M229.092,219.639    c7.442-6.501,16.986-10.356,26.908-10.356c23.759,0,43.089,21.14,43.089,47.125c0,0.773-0.017,1.544-0.051,2.311    c-0.407,0.257-1.848,1.132-2.161,1.313c-2.46,1.425-5.014,2.706-7.623,3.835c-10.465,4.527-21.869,6.692-33.254,6.692    c-12.301,0-24.741-2.553-35.86-7.877c-2.46-1.179-4.857-2.504-7.166-3.956c-0.034-0.771-0.063-1.543-0.063-2.318    C212.911,242.625,218.644,228.765,229.092,219.639z M294.313,278.012c-7.208,15.265-21.786,25.521-38.313,25.521    s-31.105-10.256-38.313-25.521c0.759,0.318,1.525,0.626,2.295,0.926c8.472,3.289,17.417,5.305,26.457,6.173    c6.766,0.649,13.602,0.589,20.36-0.125C276.169,283.996,285.573,281.677,294.313,278.012z M216.785,210.623    c-14.55,14.287-21.131,35.561-18.141,55.634c0.042,0.285,0.087,0.569,0.133,0.853c0.025,0.152,0.045,0.305,0.071,0.457    c-4.389,2.759-9.366,4.108-15.099,4.108c-25.698,0.001-34.068-29.914-36.67-50.363c-1.076-8.452,3.973-16.506,11.493-18.335    c7.067-1.719,15.538-2.591,25.176-2.591c9.638,0,18.108,0.872,25.176,2.591c3.637,0.885,6.813,3.286,8.922,6.6    C217.888,209.652,216.89,210.519,216.785,210.623z M208.162,187.482c-7.234-1.385-15.413-2.096-24.414-2.096    c-10.832,0-20.495,1.015-28.722,3.016c-15.073,3.667-24.887,18.63-22.828,34.805c1.249,9.812,3.259,18.555,5.966,26.196    c-7.204,3.501-13.331,5.889-17.577,7.38c-5.783-15.599-8.949-32.458-8.949-50.044c0-11.928,1.458-23.757,4.341-35.243h100.772    C214.197,177.003,211.329,182.347,208.162,187.482z M101.936,349.486c0.958-10.938,6.14-23.71,17.588-23.71    c4.625,0,9.948,2.059,15.575,5.993c-1.483,5.432-2.499,10.966-3.059,16.581c-0.005,0.048-0.01,0.095-0.015,0.143    c-1.115,10.875-0.396,21.949,2.017,32.608c0.009,0.039,0.017,0.078,0.026,0.116c3.942,17.335,12.362,33.497,24.525,47.235    C114.277,409.198,99.866,373.103,101.936,349.486z M237.257,454.281c-3.003-0.462-5.989-1.034-8.949-1.718    c-34.577-8.024-62.538-30.707-74.906-60.082c-7.451-17.696-8.824-37.601-3.954-56.172c0.438-1.671,2.306-7.485,2.751-8.656    c24.727,21.284,55.002,34.288,87.318,37.597c10.862,1.124,22.109,1.357,32.965,0c32.316-3.309,62.591-16.313,87.318-37.597    c0.435,1.143,0.838,2.294,1.223,3.449c6.629,19.896,5.671,42.055-2.424,61.378c-12.368,29.376-40.331,52.06-74.911,60.084    C268.508,456.086,252.656,456.646,237.257,454.281z M270.737,350.352c-9.739,1.082-19.733,1.081-29.482-0.001    c-50.379-5.134-93.169-36.286-114.701-79.761c4.572-1.64,10.729-4.091,17.87-7.55c9.091,15.447,22.44,23.635,39.324,23.635    c7.073,0,13.572-1.473,19.433-4.375c9.234,21.547,29.576,36.233,52.818,36.233c29.434,0,54.233-23.542,57.686-54.766    c0.267-2.406,0.403-4.882,0.403-7.359c0-34.256-26.059-62.125-58.089-62.125c-9.327,0-18.14,2.377-25.958,6.573    c-2.088-3.095-4.691-5.766-7.669-7.887c4.079-6.867,7.685-14.05,10.771-21.474h162.875c2.882,11.485,4.341,23.314,4.341,35.243    C400.36,281.362,343.445,342.943,270.737,350.352z M397.698,156.495H114.301c-2.31-3.873-13.637-22.639-16.664-27.851    c0.095-0.014,0.183-0.028,0.277-0.042c8.631-1.267,17.158-2.799,25.645-4.815c26.229-6.3,46.872-23.733,64.934-42.938    C206.31,61.915,218.08,49.405,256,49.405c37.919,0,49.689,12.509,67.515,31.454c16.867,17.925,35.079,34.069,59.125,41.355    c10.245,3.104,20.925,4.847,31.499,6.397c0.076,0.011,0.146,0.022,0.223,0.033C411.336,133.854,400.009,152.62,397.698,156.495z"/>
	</g>
</g>















</svg>
